<?xml version="1.0" encoding="UTF-8" standalone="no"?>
<!-- Created with Inkscape (http://www.inkscape.org/) -->

<svg
   width="102.06803mm"
   height="36.78577mm"
   viewBox="0 0 102.06803 36.78577"
   version="1.1"
   id="svg1"
   xml:space="preserve"
   inkscape:export-filename="bitmap.png"
   inkscape:export-xdpi="95.189522"
   inkscape:export-ydpi="95.189522"
   sodipodi:docname="logo.svg"
   xmlns:inkscape="http://www.inkscape.org/namespaces/inkscape"
   xmlns:sodipodi="http://sodipodi.sourceforge.net/DTD/sodipodi-0.dtd"
   xmlns="http://www.w3.org/2000/svg"
   xmlns:svg="http://www.w3.org/2000/svg"><sodipodi:namedview
     id="namedview1"
     pagecolor="#ffffff"
     bordercolor="#7843e9"
     borderopacity="0.25"
     inkscape:showpageshadow="2"
     inkscape:pageopacity="0.0"
     inkscape:pagecheckerboard="0"
     inkscape:deskcolor="#d1d1d1"
     inkscape:document-units="mm"
     inkscape:zoom="0.74029882"
     inkscape:cx="393.75991"
     inkscape:cy="565.31226"
     inkscape:window-width="1920"
     inkscape:window-height="1027"
     inkscape:window-x="-8"
     inkscape:window-y="-8"
     inkscape:window-maximized="1"
     inkscape:current-layer="layer1" /><defs
     id="defs1" /><g
     inkscape:label="Capa 1"
     inkscape:groupmode="layer"
     id="layer1"
     transform="translate(-58.866712,-122.9591)"><g
       id="g1"
       transform="translate(57.170871,121.08391)"
       style="fill:#7843e9;fill-opacity:1"><g
         id="g447"
         style="fill:#7843e9;fill-opacity:1"><g
           aria-label="CFS"
           id="g443"
           style="font-size:50.8px;fill:#7843e9;fill-opacity:1;stroke-width:0.264583"
           transform="translate(0.48085258,0.03631093)"><path
             d="m 19.824107,38.624644 c 6.5532,0 11.8364,-1.778 16.1544,-7.0612 l -7.0612,-6.7564 c -2.4384,2.9464 -5.1308,4.1148 -7.9248,4.1148 -4.4196,0 -7.490525,-2.618675 -7.490525,-6.784275 0,-6.35 4.137725,-10.995725 9.776525,-10.995725 3.2512,0 73.789297,0.735039 75.751609,0.220795 L 103.28301,2.4146808 C 99.815573,2.2257977 31.899655,2.0526808 24.566481,1.9650184 11.410221,1.8077455 1.586907,10.227444 1.586907,22.724244 c 0,9.4488 7.2135999,15.9004 18.2372,15.9004 z"
             style="font-family:Montserrat;-inkscape-font-specification:Montserrat;fill:#7843e9;fill-opacity:1"
             id="path437" /><path
             d="m 54.163461,14.270472 -11.483174,0.01123 -0.002,0.04214 -5.53964,24.189289 H 49.21066 l 2.301877,-11.017904 h 14.885465 l 1.841501,-8.755302 H 53.302885 l 0.920849,-4.511607 z"
             style="font-size:51.1528px;fill:#7843e9;fill-opacity:1;stroke-width:0.25945"
             id="path439" /><path
             style="font-family:Montserrat;-inkscape-font-specification:Montserrat;fill:#7843e9;fill-opacity:1;stroke-width:0.256366"
             d="m 84.46564,38.624644 c 11.0744,0 17.9832,-5.007809 17.9832,-12.447982 0,-10.301779 -16.998193,-8.197585 -16.998193,-11.869978 l -11.724255,-0.0025 c -0.681853,10.494963 16.682848,10.250894 16.682848,13.780207 0,1.192335 -1.6256,1.95543 -4.7244,1.95543 -3.9624,0 -8.026399,-0.953869 -11.988799,-3.100072 l -4.6228,8.298654 c 3.4036,1.955431 9.0424,3.386233 15.392399,3.386233 z"
             id="path441" /></g></g><g
         id="g412"
         style="fill:#7843e9;fill-opacity:1"><g
           aria-label="CFS"
           id="g408"
           style="font-size:50.8px;fill:#7843e9;fill-opacity:1;stroke-width:0.264583"
           transform="translate(0.10893279,-0.08766234)"><path
             d="m 19.824107,38.624644 c 6.5532,0 11.8364,-1.778 16.1544,-7.0612 l -7.0612,-6.7564 c -2.4384,2.9464 -5.1308,4.1148 -7.9248,4.1148 -4.4196,0 -7.490525,-2.618675 -7.490525,-6.784275 0,-6.35 4.137725,-10.995725 9.776525,-10.995725 3.2512,0 73.789297,0.735039 75.751609,0.220795 L 103.28301,2.4146808 C 99.815573,2.2257977 31.899655,2.0526808 24.566481,1.9650184 11.410221,1.8077455 1.586907,10.227444 1.586907,22.724244 c 0,9.4488 7.2135999,15.9004 18.2372,15.9004 z"
             style="font-family:Montserrat;-inkscape-font-specification:Montserrat;fill:#7843e9;fill-opacity:1"
             id="path402" /><path
             d="m 54.163461,14.270472 -11.483174,0.01123 -0.002,0.04214 -5.53964,24.189289 H 49.21066 l 2.301877,-11.017904 h 14.885465 l 1.841501,-8.755302 H 53.302885 l 0.920849,-4.511607 z"
             style="font-size:51.1528px;fill:#7843e9;fill-opacity:1;stroke-width:0.25945"
             id="path404" /><path
             style="font-family:Montserrat;-inkscape-font-specification:Montserrat;fill:#7843e9;fill-opacity:1;stroke-width:0.256366"
             d="m 84.46564,38.624644 c 11.0744,0 17.9832,-5.007809 17.9832,-12.447982 0,-10.301779 -16.998193,-8.197585 -16.998193,-11.869978 l -11.724255,-0.0025 c -0.681853,10.494963 16.682848,10.250894 16.682848,13.780207 0,1.192335 -1.6256,1.95543 -4.7244,1.95543 -3.9624,0 -8.026399,-0.953869 -11.988799,-3.100072 l -4.6228,8.298654 c 3.4036,1.955431 9.0424,3.386233 15.392399,3.386233 z"
             id="path406" /></g></g></g><path
       style="fill:none;stroke-width:0.477582"
       d="M 59.220168,138.20828 C 50.201185,137.18755 40.39965,134.39222 32.714367,130.64901 15.603442,122.31493 4.3629551,107.57509 1.1879099,89.307834 0.23509423,83.825919 0.23075673,72.235853 1.1791919,66.012879 6.5960531,30.471195 34.356997,5.4782982 73.451027,0.94727988 79.293336,0.27015319 90.926555,0.24353988 190.28862,0.6799908 c 132.4596,0.5818329 192.52985,1.019928 194.00488,1.4148865 1.05623,0.2828171 0.82286,0.8637696 -6.69408,16.6644867 -4.28365,9.004299 -8.05077,16.633671 -8.37137,16.954161 -0.79776,0.797488 -97.11932,0.74855 -206.62812,-0.104982 -93.933711,-0.732137 -86.635283,-0.967892 -95.022077,3.069428 -7.246189,3.488246 -12.607114,8.934065 -16.460862,16.721541 -3.131443,6.32788 -4.377622,11.358037 -4.67352,18.864489 -0.262069,6.648266 0.353455,10.147801 2.598159,14.771735 1.535999,3.164062 6.215381,7.923043 9.552285,9.714778 8.263281,4.436936 21.064442,4.292736 30.475128,-0.343277 3.840824,-1.892118 10.24987,-6.874038 12.566697,-9.768419 0.98775,-1.233976 1.7953,-1.841337 2.14912,-1.616352 0.31174,0.19823 0.69219,0.363707 0.84543,0.367728 0.46196,0.01213 26.22718,24.746106 26.22718,25.177446 0,0.8952 -10.14037,10.37739 -14.11826,13.20188 -9.71056,6.89497 -21.471864,11.08268 -35.003892,12.46341 -5.690691,0.58064 -17.278927,0.56795 -22.51515,-0.0247 z"
       id="path3"
       transform="matrix(0.26458333,0,0,0.26458333,58.866712,122.9591)" /><path
       style="fill:#1a1a1a;stroke-width:0.477582"
       d="M 59.220168,138.20828 C 50.201185,137.18755 40.39965,134.39222 32.714367,130.64901 15.603442,122.31493 4.3629551,107.57509 1.1879099,89.307834 0.23509423,83.825919 0.23075673,72.235853 1.1791919,66.012879 6.5960531,30.471195 34.356997,5.4782982 73.451027,0.94727988 79.293336,0.27015319 90.926555,0.24353988 190.28862,0.6799908 c 132.4596,0.5818329 192.52985,1.019928 194.00488,1.4148865 1.05623,0.2828171 0.82286,0.8637696 -6.69408,16.6644867 -4.28365,9.004299 -8.05077,16.633671 -8.37137,16.954161 -0.79776,0.797488 -97.11932,0.74855 -206.62812,-0.104982 -93.933711,-0.732137 -86.635283,-0.967892 -95.022077,3.069428 -7.246189,3.488246 -12.607114,8.934065 -16.460862,16.721541 -3.131443,6.32788 -4.377622,11.358037 -4.67352,18.864489 -0.262069,6.648266 0.353455,10.147801 2.598159,14.771735 1.535999,3.164062 6.215381,7.923043 9.552285,9.714778 8.263281,4.436936 21.064442,4.292736 30.475128,-0.343277 3.840824,-1.892118 10.24987,-6.874038 12.566697,-9.768419 0.98775,-1.233976 1.7953,-1.841337 2.14912,-1.616352 0.31174,0.19823 0.69219,0.363707 0.84543,0.367728 0.46196,0.01213 26.22718,24.746106 26.22718,25.177446 0,0.8952 -10.14037,10.37739 -14.11826,13.20188 -9.71056,6.89497 -21.471864,11.08268 -35.003892,12.46341 -5.690691,0.58064 -17.278927,0.56795 -22.51515,-0.0247 z"
       id="path4"
       transform="matrix(0.26458333,0,0,0.26458333,58.866712,122.9591)" /><path
       style="fill:#1a1a1a;stroke-width:0.477582"
       d="m 135.5136,137.93072 c -0.58741,-0.15349 -0.75878,-0.52762 -0.57622,-1.25795 0.14291,-0.57171 4.8352,-21.02629 10.42731,-45.454608 l 10.16746,-44.415126 h 22.00901 c 12.10495,0 22.12141,0.112524 22.25881,0.250054 0.1374,0.13753 -0.48953,3.785237 -1.39318,8.106016 -0.90366,4.32078 -1.64301,8.022942 -1.64301,8.227027 0,0.204085 12.30371,0.386169 27.34157,0.404631 15.03787,0.01846 27.6791,0.179646 28.09163,0.358186 0.6547,0.283349 0.32076,2.373169 -2.6267,16.437754 l -3.37676,16.113135 -28.17452,0.124653 -28.17453,0.124654 -4.30105,20.654844 -4.30105,20.65485 -22.44636,-0.0548 c -12.34549,-0.0302 -22.82258,-0.15313 -23.28241,-0.27329 z"
       id="path5"
       transform="matrix(0.26458333,0,0,0.26458333,58.866712,122.9591)" /><path
       style="fill:#334155;fill-opacity:1;stroke-width:0.477582"
       d="m 303.26457,138.41112 c -9.725,-0.72209 -21.94995,-2.96957 -30.88583,-5.67815 -5.14961,-1.56092 -14.46629,-5.35672 -16.12515,-6.56971 -0.70635,-0.51649 0.10857,-2.19279 7.56919,-15.56986 4.59842,-8.24507 8.53344,-15.163724 8.74449,-15.374772 0.21105,-0.211049 2.9366,0.79567 6.05677,2.237156 13.8222,6.385716 27.24717,9.204086 41.3559,8.682066 8.01742,-0.29664 12.04949,-1.4138 14.2827,-3.95729 3.09257,-3.522248 1.46053,-7.112614 -4.53571,-9.978168 -1.55213,-0.741749 -8.08739,-3.227964 -14.52281,-5.524922 -6.43542,-2.296958 -13.63642,-5.035304 -16.00223,-6.085214 -12.06009,-5.352083 -20.13961,-12.081729 -23.7994,-19.823137 -1.31755,-2.786978 -2.70317,-8.833908 -2.70317,-11.79683 v -1.930462 l 21.61059,0.0065 c 11.88582,0.0036 22.07654,0.131507 22.64604,0.284266 0.5695,0.15276 1.28758,0.886444 1.59575,1.630409 0.61508,1.484947 2.96861,3.207051 6.03243,4.413997 1.08762,0.428453 7.189,2.096853 13.55863,3.707556 13.55213,3.426962 18.64108,5.053748 24.74865,7.911405 10.48084,4.903857 16.66762,11.590694 18.73791,20.252406 0.89614,3.74932 0.78534,10.995346 -0.23735,15.521414 -4.69577,20.78173 -24.86137,34.53432 -54.92822,37.46011 -4.77346,0.46451 -17.99317,0.56776 -23.19918,0.18121 z"
       id="path6"
       transform="matrix(0.26458333,0,0,0.26458333,58.866712,122.9591)" /><path
       style="fill:#334155;fill-opacity:1;stroke-width:0.477582"
       d="M 55.160721,137.32539 C 49.242238,136.26403 45.618435,135.31471 40.240075,133.41666 19.539071,126.1112 5.4018459,110.24244 1.6215091,90.068073 0.58869819,84.556313 0.60372879,70.860713 1.6491979,64.838552 4.380959,49.102932 11.249939,35.694035 22.162579,24.794493 35.030103,11.942414 51.664353,4.1547973 72.114882,1.4084449 78.318858,0.57529721 128.77027,0.5108255 252.87967,1.177446 357.65008,1.7401923 384.45429,2.0713147 384.45131,2.8027994 384.44857,3.4746609 378.75874,15.86465 373.31658,27.049402 l -4.09871,8.423704 -9.93332,0.361583 c -5.46333,0.19887 -53.23807,0.169162 -106.16609,-0.06602 -52.92803,-0.235181 -114.7152,-0.427602 -137.30483,-0.427602 -46.555964,0 -42.40559,-0.337491 -50.120564,4.075593 -4.976471,2.846618 -9.202298,6.811884 -12.139924,11.391378 -5.049589,7.871864 -6.720302,13.263531 -7.095504,22.898356 -0.422473,10.848691 0.955862,15.125791 6.737671,20.907599 5.850795,5.850797 10.928098,7.578827 21.281803,7.243147 5.513747,-0.17877 7.067646,-0.41166 10.485299,-1.57151 4.995761,-1.695423 9.869614,-4.843056 14.814976,-9.567827 3.617743,-3.456371 3.866423,-3.607282 4.831073,-2.931618 1.6338,1.144353 25.77143,24.318945 25.77143,24.743205 0,1.17352 -10.20995,10.5423 -15.19592,13.94399 -7.96456,5.43382 -18.545243,9.32357 -30.070018,11.05456 -7.004871,1.05212 -23.581924,0.94002 -29.953231,-0.20255 z"
       id="path7"
       transform="matrix(0.26458333,0,0,0.26458333,58.866712,122.9591)" /><path
       style="fill:#334155;fill-opacity:1;stroke-width:0.477582"
       d="m 155.33355,137.90194 c -12.94163,-0.0833 -20.17784,-0.29985 -20.17784,-0.6038 0,-0.3839 16.00348,-70.528171 19.63866,-86.077471 l 0.97694,-4.178842 h 21.98076 21.98076 l -0.23927,1.074559 c -0.98036,4.402775 -2.8795,15.172165 -2.70579,15.343603 0.11814,0.116602 12.62597,0.369838 27.79517,0.562748 l 27.58036,0.350745 v 1.105861 c 0,0.882791 -4.94482,25.85936 -5.97032,30.156452 l -0.25645,1.07456 h -28.16824 c -15.49253,0 -28.16824,0.07522 -28.16824,0.167158 0,0.25651 -8.09618,38.976607 -8.41755,40.257007 -0.25959,1.03429 -0.50074,1.11623 -2.97679,1.0114 -1.48188,-0.0627 -11.77435,-0.17253 -22.87216,-0.24398 z"
       id="path8"
       transform="matrix(0.26458333,0,0,0.26458333,58.866712,122.9591)" /></g></svg>
